<svg width="139" height="25" viewBox="0 0 139 25" fill="none" xmlns="http://www.w3.org/2000/svg">
<path d="M0.536133 17.3559L2.75889 14.6854C3.55909 15.6646 4.35928 16.1987 5.24839 16.1987C6.40422 16.1987 7.0266 15.4866 7.0266 14.0623V7.83108H2.04761V4.62646H11.1165V13.8843C11.1165 17.623 9.16045 19.4924 5.51512 19.4924C3.47018 19.4924 1.69197 18.6912 0.536133 17.3559Z" fill="#142A39"/>
<path d="M68.8993 15.2194C68.8993 17.7119 66.8544 19.2252 62.9423 19.2252H55.1182V4.71533H62.4977C66.3209 4.71533 68.188 6.22863 68.188 8.54308C68.188 9.96736 67.4767 11.0356 66.232 11.6587C67.9213 12.1928 68.8993 13.439 68.8993 15.2194ZM59.208 7.65291V10.4125H62.0532C63.3869 10.4125 64.0981 9.96736 64.0981 8.98817C64.0981 8.098 63.3869 7.56389 62.0532 7.56389H59.208V7.65291ZM64.8094 14.7743C64.8094 13.7951 64.0981 13.261 62.6756 13.261H59.208V16.1986H62.6756C64.0092 16.1986 64.8094 15.7535 64.8094 14.7743Z" fill="#142A39"/>
<path d="M82.8586 7.92011H78.4131V4.62646H91.394V7.92011H86.9485V19.2253H82.8586V7.92011Z" fill="#142A39"/>
<path d="M110.776 16.3766H104.641L103.485 19.2252H99.3065L105.708 4.71533H109.709L116.199 19.2252H111.932L110.776 16.3766ZM109.62 13.35L107.753 8.72112L105.886 13.35H109.62Z" fill="#142A39"/>
<path d="M134.871 11.6591H138.517V17.7123C136.827 18.9586 134.516 19.5817 132.471 19.5817C127.847 19.5817 124.469 16.4661 124.469 12.0152C124.469 7.56434 127.847 4.44873 132.56 4.44873C135.316 4.44873 137.45 5.3389 138.872 7.11925L136.294 9.52273C135.316 8.45453 134.16 7.92042 132.737 7.92042C130.248 7.92042 128.559 9.52273 128.559 12.1042C128.559 14.4187 130.515 16.2881 132.826 16.2881C133.538 16.2881 134.16 16.11 134.871 15.843V11.6591Z" fill="#142A39"/>
<path d="M42.8966 19.2472C43.0344 19.0503 43.1722 18.8534 43.379 18.6565C46.2738 14.4556 45.9292 8.94188 42.5519 5.13481C43.5858 3.62511 43.1722 1.52466 41.5181 0.540074C39.9328 -0.444512 37.7272 -0.0506818 36.6933 1.45902C31.6619 0.0805965 26.2168 1.91849 23.322 6.18503C23.1841 6.38195 23.0463 6.57887 22.9084 6.84142C21.3232 6.57887 19.6001 7.36654 18.9108 9.00751C18.5662 9.9921 18.704 11.108 19.3244 12.0269C19.8758 12.7489 20.565 13.2084 21.3921 13.4053C21.6678 16.8842 23.6666 20.1005 26.7682 22.0697C29.8698 24.0389 33.7296 24.4327 37.2447 23.3168C37.7272 23.9076 38.4165 24.3671 39.3814 24.564C40.4842 24.7609 41.6559 24.4327 42.4141 23.7107C43.7236 22.3979 43.7926 20.56 42.8966 19.2472ZM37.038 19.3129C36.4176 20.2318 36.3487 21.282 36.6244 22.2666C33.5228 23.2512 30.0766 22.7917 27.3196 21.0851C24.5626 19.3785 22.7706 16.556 22.4949 13.4053C23.5288 13.3397 24.5626 12.8146 25.1829 11.8956C26.2168 10.3203 25.8033 8.28549 24.1491 7.23526C24.0801 7.16962 24.0112 7.16962 23.9423 7.10398C24.0112 6.97271 24.1491 6.84142 24.218 6.71015C26.8371 2.96872 31.6618 1.2621 36.1419 2.4436C35.7284 3.82203 36.2798 5.33173 37.5894 6.1194C38.8989 6.90707 40.5531 6.84143 41.7248 5.92248C44.6886 9.40135 44.9643 14.3243 42.3451 18.0657C42.2762 18.197 42.1384 18.3283 42.0694 18.4596C42.0005 18.3939 41.9316 18.3939 41.8627 18.3283C40.2774 17.3437 38.1408 17.7375 37.038 19.3129Z" fill="#142A39"/>
</svg>
